<svg xmlns="http://www.w3.org/2000/svg" width="3000.001" height="777.407" viewBox="0 0 3000.001 777.407">
  <g id="Color_logo_-_no_background" data-name="Color logo - no background" transform="translate(0 0)">
    <g id="SvgjsG1402" transform="translate(-79.874 -81.146)">
      <path id="Path_72233" data-name="Path 72233" d="M306.607,81.154a181.854,181.854,0,0,0-19.741,82.466c.029,83.6,56.2,153.946,132.8,175.776,34.622-68.64,23.358-154.487-34-211.783A182.024,182.024,0,0,0,306.607,81.154Z" fill="#fd7b02"/>
      <path id="Path_72234" data-name="Path 72234" d="M344.275,417.424c-21.142-77.729-92.04-134.948-176.465-134.9a182.1,182.1,0,0,0-87.935,22.558,181.848,181.848,0,0,0,47.121,81.42C185.867,445.327,274.808,455.557,344.275,417.424Z" fill="#fd7b02"/>
      <path id="Path_72235" data-name="Path 72235" d="M524.892,592.952c-40.287,69.979-30.708,160.817,29.15,220.593a182.018,182.018,0,0,0,74.377,45,182.76,182.76,0,0,0-103.527-265.6Z" fill="#fd7b02"/>
      <path id="Path_72236" data-name="Path 72236" d="M597.908,522.255c23.909,73.291,92.731,126.285,174,126.229A182.03,182.03,0,0,0,857.191,627.3a182.744,182.744,0,0,0-259.283-105.04Z" fill="#fd7b02"/>
      <path id="Path_72237" data-name="Path 72237" d="M286.866,767.558a181.889,181.889,0,0,0,24.42,90.994,182,182,0,0,0,74.491-45.129c59.747-59.79,69.294-150.559,29.028-220.478A183,183,0,0,0,286.866,767.558Z" fill="#fd7b02"/>
      <path id="Path_72238" data-name="Path 72238" d="M341.789,522.253A182.709,182.709,0,0,0,82.517,627.309a181.99,181.99,0,0,0,85.449,21.176C249.162,648.457,317.9,595.483,341.789,522.253Z" fill="#fd7b02"/>
      <path id="Path_72239" data-name="Path 72239" d="M652.831,163.473a181.914,181.914,0,0,0-19.762-82.327,182.019,182.019,0,0,0-79.13,46.551c-57.271,57.312-68.478,143.1-33.9,211.694C596.7,317.548,652.875,247.135,652.831,163.473Z" fill="#fd7b02"/>
      <path id="Path_72240" data-name="Path 72240" d="M595.43,417.418c69.529,38.159,158.526,27.9,217.4-31.043a181.894,181.894,0,0,0,47-81.3,182.087,182.087,0,0,0-88.075-22.554C687.382,282.551,616.571,339.758,595.43,417.418Z" fill="#fd7b02"/>
    </g>
    <g id="SvgjsG1403" transform="translate(879.478 -189.709)">
      <path id="Path_72241" data-name="Path 72241" d="M373.905,707.088q-22.212,19.251-60.343,28.135a343.075,343.075,0,0,1-78.113,8.885q-19.991,0-61.824-.74T66.637,741.147L61.454,736.7V238.411l5.183-4.442q42.944-1.481,86.257-2.221t88.479-.74q62.194,0,103.287,19.991t65.526,55.16q24.433,35.169,34.429,81.815t10,99.955q0,74.041-16.659,127.72t-64.045,91.44ZM333.183,368.722q-22.212-59.232-91.81-59.233H195.467l-34.8-.74V666.366q14.068-.74,32.208-.74t36.65-.74q18.51-.74,34.429-2.962t26.284-7.4a89.929,89.929,0,0,0,31.467-27.765,135.931,135.931,0,0,0,18.88-39.982,264.08,264.08,0,0,0,9.255-48.867q2.591-26.284,2.591-54.42a403.631,403.631,0,0,0-4.072-59.232,252.151,252.151,0,0,0-15.178-55.53ZM646.375,613.8l-.74,45.905,51.828-1.481h181.4q0,23.693-2.221,36.28-8.145,47.386-63.675,47.386H604.912q-26.655,0-41.833-15.919T547.9,682.654V239.892l5.183-5.183H861.833a201.85,201.85,0,0,1,3.7,39.612q0,21.1-8.144,44.054H645.634l.74,51.088v76.262l48.126-.74H819.63q5.923,17.029,5.923,40.722t-5.923,40.722H646.375V613.8Zm578.257,11.846-36.28.74H1084.7l-36.28-.74-34.8,115.5q-15.549,3.7-44.054,3.7t-46.275-6.664l-3.7-5.183L1084.7,234.709a443.326,443.326,0,0,1,59.232-3.7q31.837,0,55.53,4.442l162.149,498.293q-21.472,12.587-51.458,12.587t-42.944-11.106q-12.957-11.106-21.842-42.2ZM1072.849,547.16l33.318-.74h63.675l31.1.74-22.212-75.521Q1153.553,387.232,1138.745,328H1134.3q-6.664,31.837-32.578,125.129ZM1600.018,656h137.716q0,22.212-2.962,37.761-8.145,48.126-64.415,48.126H1490.438q-26.655,0-42.2-15.919t-15.548-43.314V235.449l5.183-5.183h37.02q29.616,0,43.684,15.178t14.068,48.5v365.02Q1564.478,656,1600.018,656Zm382.79,0h137.715q0,22.212-2.962,37.761-8.144,48.126-64.415,48.126H1873.228q-26.655,0-42.2-15.919t-15.548-43.314V235.449l5.183-5.183h37.02q29.616,0,43.684,15.178t14.068,48.5v365.02Q1947.268,656,1982.808,656Z" fill="#fff"/>
    </g>
    <g id="SvgjsG1404" transform="translate(1289.588 601.215)">
      <path id="Path_72242" data-name="Path 72242" d="M19.659,41.242v96.231H8.248V41.242Zm154.273,0V51.965h-26.67v85.508h-11.41V51.965H109.044V41.242h64.887Zm97.359,0V65.3H259.88V41.242Zm112.756-1.65A32.616,32.616,0,0,1,414.152,59.8l-8.661,4.674c-4.4-8.8-11.41-14.572-21.446-14.572-10.585,0-17.872,6.049-17.872,14.435,0,7.836,4.949,12.785,15.4,16.772l7.011,2.612c17.322,6.461,28.182,13.885,28.182,29.144,0,16.5-15.809,26.67-32.169,26.67s-29.832-9.9-33.543-23.645l9.211-4.4c3.3,10.173,11.96,17.6,24.333,17.6,11,0,20.346-6.324,20.346-16.084,0-11-7.7-15.122-19.109-19.521l-7.149-2.749c-14.572-5.5-23.92-13.06-23.92-26.67,0-14.022,12.373-24.47,29.282-24.47Zm317.344,1.65L665.508,93.069v44.4H654.1v-44.4L618.218,41.242h13.06l28.457,41.379,28.594-41.379h13.06Zm135.164-1.375c25.02,0,49.215,20.346,49.215,49.49s-24.2,49.49-49.216,49.49c-25.158,0-49.215-20.346-49.215-49.49s24.058-49.49,49.215-49.49Zm0,88.12c18.834,0,37.393-15.947,37.393-38.63s-18.559-38.63-37.393-38.63c-18.971,0-37.393,15.947-37.393,38.63S817.582,127.988,836.553,127.988Zm197.714-86.746h11.41v61.313c0,23.645-15.4,36.98-34.918,36.98s-34.918-13.335-34.918-36.98V41.242h11.41v61.313c0,18.009,10.723,26.12,23.508,26.12s23.508-8.111,23.508-26.12V41.242Zm174.206,96.231H1196.1l-24.333-34.643h-22.546v34.643h-11.41V41.242h31.344c21.583,0,34.093,13.2,34.093,31.069,0,13.747-7.423,24.47-20.621,28.594Zm-59.251-85.508V92.657h19.659c13.885,0,22.958-7.149,22.958-20.346,0-13.335-9.073-20.346-22.958-20.346h-19.659Zm174.069-12.373A32.616,32.616,0,0,1,1353.4,59.8l-8.661,4.674c-4.4-8.8-11.41-14.572-21.446-14.572-10.585,0-17.872,6.049-17.872,14.435,0,7.836,4.949,12.785,15.4,16.772l7.011,2.612c17.322,6.461,28.182,13.885,28.182,29.144,0,16.5-15.809,26.67-32.169,26.67s-29.832-9.9-33.544-23.645l9.211-4.4c3.3,10.173,11.96,17.6,24.333,17.6,11,0,20.346-6.324,20.346-16.084,0-11-7.7-15.122-19.109-19.521l-7.149-2.749c-14.572-5.5-23.92-13.06-23.92-26.67,0-14.022,12.373-24.47,29.282-24.47Z" fill="#fff"/>
    </g>
  </g>
</svg>
