<svg id="notifications" xmlns="http://www.w3.org/2000/svg" width="138.352" height="171.562" viewBox="0 0 138.352 171.562">
  <g id="Group_47865" data-name="Group 47865" transform="translate(23.001 87.782)" opacity="0.5">
    <g id="Group_47860" data-name="Group 47860" transform="translate(31.05 58.412)">
      <g id="Group_47859" data-name="Group 47859">
        <g id="Group_47858" data-name="Group 47858">
          <g id="Group_47857" data-name="Group 47857">
            <path id="Path_71530" data-name="Path 71530" d="M214.861,436.292a15.125,15.125,0,1,0,22.253,0Z" transform="translate(-210.863 -436.292)" fill="#6354c4"/>
          </g>
        </g>
      </g>
    </g>
    <g id="Group_47864" data-name="Group 47864">
      <g id="Group_47863" data-name="Group 47863">
        <g id="Group_47862" data-name="Group 47862">
          <g id="Group_47861" data-name="Group 47861">
            <path id="Path_71531" data-name="Path 71531" d="M210.547,286.14H118.2a45.463,45.463,0,0,0,.7-7.231V261.97H209.85v16.938A45.45,45.45,0,0,0,210.547,286.14Z" transform="translate(-118.198 -261.97)" fill="#6354c4"/>
          </g>
        </g>
      </g>
    </g>
  </g>
  <g id="Group_47866" data-name="Group 47866" transform="translate(0 0)">
    <path id="Path_71532" data-name="Path 71532" d="M175.006,123.406h-3.044a40.269,40.269,0,0,1-3.753-12.013,42.232,42.232,0,0,1-.65-6.673V66.273a48.917,48.917,0,0,0-35.211-46.9V13.617a13.617,13.617,0,1,0-27.234,0v5.759A48.917,48.917,0,0,0,69.9,66.273V104.72a42.2,42.2,0,0,1-.65,6.67,40.215,40.215,0,0,1-3.75,12.016H62.458a12.9,12.9,0,1,0,0,25.8H175.006a12.9,12.9,0,0,0,0-25.8ZM111.816,13.617a6.915,6.915,0,0,1,13.831,0v4.316a49.207,49.207,0,0,0-13.831,0V13.617ZM75.861,112.509a49.029,49.029,0,0,0,.744-7.789V66.273a42.127,42.127,0,1,1,84.253,0V104.72a49.04,49.04,0,0,0,.745,7.794,55.771,55.771,0,0,0,2.974,10.892H72.89A55.688,55.688,0,0,0,75.861,112.509Zm99.145,30H62.458a6.2,6.2,0,1,1,0-12.4H175.006a6.2,6.2,0,1,1,0,12.4Z" transform="translate(-49.556 0)" fill="#4537a0"/>
  </g>
</svg>
