<svg xmlns="http://www.w3.org/2000/svg" width="80" height="51.092" viewBox="0 0 80 51.092">
  <g id="Password_reset_link_sent" data-name="Password reset link sent" transform="translate(2 -84.526)">
    <circle id="Ellipse_4980" data-name="Ellipse 4980" cx="12" cy="12" r="12" transform="translate(-2 84.526)" fill="#cbc6eb" opacity="0.5"/>
    <circle id="Ellipse_4981" data-name="Ellipse 4981" cx="3.5" cy="3.5" r="3.5" transform="translate(1 128.618)" fill="#cbc6eb" opacity="0.5"/>
    <g id="Group_49732" data-name="Group 49732" transform="translate(11.333 84.775)">
      <path id="Path_71841" data-name="Path 71841" d="M51.267,68.526H4.435A4.46,4.46,0,0,0,0,73v30.862a4.46,4.46,0,0,0,4.435,4.474H25.857a1.312,1.312,0,0,0,0-2.625H4.435A1.843,1.843,0,0,1,2.6,103.862v-3.7L15.948,89.981l8.537,6.511a5.549,5.549,0,0,0,6.733,0l8.536-6.51,12.7,9.687A1.293,1.293,0,0,0,54,99.687a1.309,1.309,0,0,0,1.7-1.248V73a4.46,4.46,0,0,0-4.435-4.474ZM2.6,96.869V79.8l11.189,8.533ZM29.65,94.4a2.972,2.972,0,0,1-3.6,0L2.6,76.512V73a1.843,1.843,0,0,1,1.833-1.849H51.267A1.843,1.843,0,0,1,53.1,73v3.512Zm12.262-6.061L53.1,79.8V96.869Z" transform="translate(0 -68.526)" fill="#4537a0"/>
      <path id="Path_71842" data-name="Path 71842" d="M205.165,298.672a10.683,10.683,0,0,1-2.534-4.088l-3.247,0-1.259,2.224h-4.481l-1.133-2.218-3.241,0-1.289,2.216H184.11l-4-5.712,3.284-3.929h19.394a10.625,10.625,0,0,1,17.392-3.647C229.766,293.93,215.48,308.337,205.165,298.672Z" transform="translate(-156.679 -252.602)" fill="#ffab16" fill-rule="evenodd"/>
      <g id="Group_49731" data-name="Group 49731" transform="translate(58.732 37.192)">
        <path id="Path_71843" data-name="Path 71843" d="M452.709,354.533a1.3,1.3,0,1,1,1.3-1.314A1.307,1.307,0,0,1,452.709,354.533Z" transform="translate(-451.408 -351.916)" fill="#4537a0"/>
      </g>
    </g>
  </g>
</svg>
