<svg xmlns="http://www.w3.org/2000/svg" width="223.873" height="200" viewBox="0 0 223.873 200"><defs><style>.a{fill:#f1f4f8;}.b{fill:#e4e9f2;}.c{fill:#a1acc6;}</style></defs><g transform="translate(-16 -45.105)"><circle class="a" cx="43.72" cy="43.72" r="43.72" transform="translate(16 45.106)"/><circle class="a" cx="12.752" cy="12.752" r="12.752" transform="translate(26.93 209.391)"/><g transform="translate(83.111 93.503)"><circle class="b" cx="30.961" cy="30.961" r="30.961" transform="translate(25.802)"/><path class="b" d="M232.994,385.973a56.757,56.757,0,0,0-56.763,56.763v6.437a92.864,92.864,0,0,0,113.525,0v-6.437A56.764,56.764,0,0,0,232.994,385.973Z" transform="translate(-176.231 -324.051)"/></g><g transform="translate(39.873 45.105)"><path class="c" d="M215.469,230.939a100,100,0,1,0,100,100A100.114,100.114,0,0,0,215.469,230.939Zm0,185.768a85.768,85.768,0,1,1,85.768-85.768A85.865,85.865,0,0,1,215.469,416.707Z" transform="translate(-115.469 -230.939)"/></g></g></svg>