<svg xmlns="http://www.w3.org/2000/svg" width="172.785" height="200" viewBox="0 0 172.785 200"><defs><style>.a{fill:#f1f4f8;}.b{fill:#e4e9f2;}.c{fill:#a1acc6;}</style></defs><g transform="translate(-55.719 4)"><circle class="a" cx="30.38" cy="30.38" r="30.38" transform="translate(55.719 -4)"/><circle class="a" cx="8.861" cy="8.861" r="8.861" transform="translate(63.314 95.669)"/><g transform="translate(86.098 13.722)"><circle class="b" cx="32.041" cy="32.041" r="32.041" transform="translate(30.261 17.801)"/><path class="b" d="M106,260h89v36.313H106Z" transform="translate(-88.199 -167.437)"/><g transform="translate(0)"><path class="c" d="M187.725,10.68H180.6A10.693,10.693,0,0,0,169.924,0H66.68A10.693,10.693,0,0,0,56,10.68V153.8a10.693,10.693,0,0,0,10.68,10.68H73.8v7.12a10.693,10.693,0,0,0,10.68,10.68H187.725a10.693,10.693,0,0,0,10.68-10.68V21.361A10.693,10.693,0,0,0,187.725,10.68ZM63.12,153.8V10.68a3.564,3.564,0,0,1,3.56-3.56H169.924a3.564,3.564,0,0,1,3.56,3.56V153.8a3.564,3.564,0,0,1-3.56,3.56H66.68A3.564,3.564,0,0,1,63.12,153.8Zm128.165,17.8a3.564,3.564,0,0,1-3.56,3.56H84.481a3.564,3.564,0,0,1-3.56-3.56v-7.12h89A10.693,10.693,0,0,0,180.6,153.8V17.8h7.12a3.564,3.564,0,0,1,3.56,3.56Z" transform="translate(-56)"/><path class="c" d="M197.383,127.1a3.561,3.561,0,0,0,5.035,0l16.021-16.021a3.56,3.56,0,0,0-5.035-5.035l-13.5,13.5-2.823-2.823a3.56,3.56,0,0,0-5.035,5.035Z" transform="translate(-142.938 -67.619)"/><path class="c" d="M191.443,399.12a3.56,3.56,0,0,0,0-7.12H109.56a3.56,3.56,0,0,0,0,7.12Z" transform="translate(-88.199 -252.443)"/></g></g></g></svg>