<svg xmlns="http://www.w3.org/2000/svg" width="217.46" height="200" viewBox="0 0 217.46 200"><defs><style>.a{fill:#f1f4f8;}.b{fill:#e4e9f2;fill-rule:evenodd;}.c{fill:#a1acc6;}</style></defs><g transform="translate(10.609 3.977)"><circle class="a" cx="33.333" cy="33.333" r="33.333" transform="translate(-10.609 -3.976)"/><circle class="a" cx="9.722" cy="9.722" r="9.722" transform="translate(-2.276 105.382)"/><path class="b" d="M130,178.094h66.751a37.083,37.083,0,0,1,26.534-21.47V70H130Z" transform="translate(-64.558 -37.596)"/><g transform="translate(17.319 6.491)"><path class="c" d="M159.918,109.632V18.509a18.406,18.406,0,0,0-5.486-13.147A18.266,18.266,0,0,0,141.5,0H18.509A18.53,18.53,0,0,0,0,18.509v7.4a3.7,3.7,0,0,0,3.7,3.7H29.614v126.6a18.53,18.53,0,0,0,18.509,18.509h69.3a40.713,40.713,0,1,0,42.493-65.093ZM29.614,22.211H7.4v-3.7a11.105,11.105,0,0,1,22.211,0ZM59.229,156.216a11.105,11.105,0,1,1-22.211,0V18.509A18.413,18.413,0,0,0,33.307,7.4H141.469a10.93,10.93,0,0,1,7.747,3.212,11.053,11.053,0,0,1,3.3,7.893V108.26q-1.829-.165-3.7-.167a40.776,40.776,0,0,0-40.553,37.018H62.93a3.7,3.7,0,0,0-3.7,3.7Zm3.693,11.105a18.414,18.414,0,0,0,3.71-11.105v-3.7H108.26a40.409,40.409,0,0,0,4.288,14.807Zm85.891,14.807a33.316,33.316,0,1,1,33.316-33.316A33.354,33.354,0,0,1,148.813,182.129Z" transform="translate(0 0)"/><path class="c" d="M407.034,353.445H399.4v-18.96a3.7,3.7,0,0,0-7.4,0v22.662a3.7,3.7,0,0,0,3.7,3.7h11.331a3.7,3.7,0,0,0,0-7.4Z" transform="translate(-246.89 -208.334)"/><path class="c" d="M329.387,392h0a3.7,3.7,0,1,0,3.7,3.7A3.7,3.7,0,0,0,329.385,392Z" transform="translate(-205.122 -246.891)"/><path class="c" d="M395.7,458.315a3.7,3.7,0,0,0-3.7,3.7v0a3.7,3.7,0,1,0,3.7-3.7Z" transform="translate(-246.89 -288.656)"/><path class="c" d="M462.016,392a3.7,3.7,0,1,0,0,7.4h0a3.7,3.7,0,1,0,0-7.4Z" transform="translate(-288.655 -246.891)"/><path class="c" d="M208.2,116.071h44.976a3.7,3.7,0,1,0,0-7.4H208.2a3.7,3.7,0,0,0,0,7.4Z" transform="translate(-128.799 -68.441)"/><path class="c" d="M169.7,164.738h59.229a3.7,3.7,0,1,0,0-7.4H169.7a3.7,3.7,0,1,0,0,7.4Z" transform="translate(-104.551 -99.092)"/><path class="c" d="M169.7,213.4h59.229a3.7,3.7,0,1,0,0-7.4H169.7a3.7,3.7,0,1,0,0,7.4Z" transform="translate(-104.551 -129.744)"/><path class="c" d="M253.179,254.668H208.2a3.7,3.7,0,1,0,0,7.4h44.976a3.7,3.7,0,1,0,0-7.4Z" transform="translate(-128.799 -160.395)"/><path class="c" d="M169.7,310.739h41.09a3.7,3.7,0,1,0,0-7.4H169.7a3.7,3.7,0,1,0,0,7.4Z" transform="translate(-104.551 -191.047)"/></g></g></svg>