<svg xmlns="http://www.w3.org/2000/svg" width="224" height="200" viewBox="0 0 224 200"><defs><style>.a{fill:#f1f4f8;}.b{fill:#e4e9f2;}.c{fill:#a1acc6;}</style></defs><g transform="translate(12 -0.002)"><circle class="a" cx="33.333" cy="33.333" r="33.333" transform="translate(-12 0.004)"/><circle class="a" cx="9.722" cy="9.722" r="9.722" transform="translate(-3.667 112.786)"/><g transform="translate(39.439 113.729)"><path class="b" d="M291.143,291.143h58.833v82.366H291.143Z" transform="translate(-204.854 -291.143)"/><path class="b" d="M70.245,291.143h70.6v47.067h-70.6Z" transform="translate(-70.245 -291.143)"/></g><g transform="translate(12 0.001)"><path class="c" d="M325.212,376.531a3.906,3.906,0,0,0-3.906,3.906v7.844a3.906,3.906,0,0,0,7.813,0v-7.844A3.906,3.906,0,0,0,325.212,376.531Z" transform="translate(-195.796 -229.449)"/><path class="c" d="M199.44,33.276c-.236-.393-14.7-23.523-19.644-31.439A3.906,3.906,0,0,0,176.483,0H23.517A3.906,3.906,0,0,0,20.2,1.837C-.566,35.079.51,33.309.335,33.706A3.964,3.964,0,0,0,0,35.224C0,35.586,0,61.553,0,68.679A17.574,17.574,0,0,0,7.844,83.307V196.095A3.906,3.906,0,0,0,11.751,200h176.5a3.906,3.906,0,0,0,3.906-3.906V83.307A17.574,17.574,0,0,0,200,68.679V35.284A3.92,3.92,0,0,0,199.44,33.276ZM25.682,7.813H174.318l14.728,23.565H10.954Zm139.05,60.866a9.777,9.777,0,0,1-9.766,9.766h-.111a9.777,9.777,0,0,1-9.766-9.766V39.191h19.643Zm-27.455,0a9.777,9.777,0,0,1-9.766,9.766H127.4a9.777,9.777,0,0,1-9.766-9.766V39.191h19.643Zm-27.456,0a9.777,9.777,0,0,1-9.766,9.766h-.111a9.777,9.777,0,0,1-9.766-9.766V39.191h19.643Zm-27.455,0A9.777,9.777,0,0,1,72.6,78.445h-.112a9.777,9.777,0,0,1-9.766-9.766V39.191H82.366Zm-27.456,0a9.777,9.777,0,0,1-9.766,9.766h-.111a9.777,9.777,0,0,1-9.766-9.766V39.191H54.911ZM7.812,39.191H27.455V68.679a9.822,9.822,0,0,1-19.643,0Zm176.531,153H15.657V86.15a17.589,17.589,0,0,0,15.7-6.439,17.666,17.666,0,0,0,27.455,0,17.666,17.666,0,0,0,27.456,0,17.666,17.666,0,0,0,27.455,0,17.666,17.666,0,0,0,27.456,0,17.666,17.666,0,0,0,27.455,0,17.586,17.586,0,0,0,15.7,6.439V192.188Zm7.845-123.51a9.822,9.822,0,0,1-19.643,0V39.191h19.643Z" transform="translate(0 -0.001)"/></g></g></svg>