<svg xmlns="http://www.w3.org/2000/svg" width="236.694" height="200" viewBox="0 0 236.694 200"><defs><style>.a{fill:#f1f4f8;}.b{fill:#a1acc6;}.c{fill:#e4e9f2;}</style></defs><g transform="translate(23.5)"><circle class="a" cx="32.5" cy="32.5" r="32.5" transform="translate(-23.5 17.713)"/><circle class="a" cx="7" cy="7" r="7" transform="translate(-0.5 150.897)"/><g transform="translate(17.5)"><path class="b" d="M146.4,39.139H113.132V35.225a35.225,35.225,0,0,0-70.45,0v3.914H9.414A3.914,3.914,0,0,0,5.5,43.053v140.9a15.673,15.673,0,0,0,15.656,15.656H79.864a3.914,3.914,0,0,0,0-7.828H21.156a7.837,7.837,0,0,1-7.828-7.828V46.967H42.682v7.828a3.914,3.914,0,1,0,7.828,0V46.967H105.3v7.828a3.914,3.914,0,1,0,7.828,0V46.967h29.354v54.795a3.914,3.914,0,1,0,7.828,0V43.053A3.914,3.914,0,0,0,146.4,39.139Zm-41.1,0H50.51V35.225a27.4,27.4,0,0,1,54.795,0Z" transform="translate(-5.5)"/></g><g transform="translate(80.122 97.847)"><path class="c" d="M177.242,352.153H286.831a11.742,11.742,0,0,0,11.742-11.742V250H165.5v90.411A11.742,11.742,0,0,0,177.242,352.153Z" transform="translate(-165.5 -250)"/></g><g transform="translate(111.433 113.503)"><path class="b" d="M312.036,290a3.914,3.914,0,0,0-3.914,3.914v3.914a27.4,27.4,0,0,1-54.795,0v-3.914a3.914,3.914,0,1,0-7.828,0v3.914a35.225,35.225,0,0,0,70.45,0v-3.914A3.914,3.914,0,0,0,312.036,290Z" transform="translate(-245.5 -290)"/></g></g></svg>